<svg xmlns="http://www.w3.org/2000/svg" viewBox="0 0 127.01 34.64"><defs><style>.cls-1{fill:#fff;}</style></defs><title>logo-wara-w</title><g id="Layer_2" data-name="Layer 2"><g id="DISEÑO"><path class="cls-1" d="M71.64,20.77a3.32,3.32,0,0,1-1.05,2.5A3.79,3.79,0,0,1,68,24.39a3.19,3.19,0,0,1-2.58-1.12,5.59,5.59,0,0,1-1-3.66V7.08H60.71V20a4.8,4.8,0,0,1-1,3.27,3.2,3.2,0,0,1-2.59,1.1h0a2.94,2.94,0,0,1-2.46-1.29,6,6,0,0,1-1-3.5l0-12.46H50V19.72a8.85,8.85,0,0,0,1.67,5.33,6.87,6.87,0,0,0,5.41,2.66h.41a6.24,6.24,0,0,0,3.41-1,7.83,7.83,0,0,0,1.64-1.38,7.6,7.6,0,0,0,1.75,1.47,6.62,6.62,0,0,0,3.52,1h.36a1.52,1.52,0,0,0,.37,0,7.57,7.57,0,0,0,4.57-2.21,6.63,6.63,0,0,0,2.13-4.94V7.08H71.64Z"/><path class="cls-1" d="M93.24,9.51A2.36,2.36,0,0,0,93,9.21L92.79,9a5.61,5.61,0,0,0-2.45-1.57,9.91,9.91,0,0,0-2.77-.36H78.72V10.6h9.57a2.47,2.47,0,0,1,.85.14,3.58,3.58,0,0,1,.79.43l.13.11.08.07a3.11,3.11,0,0,1,.74,1,2.63,2.63,0,0,1,.14.43H85.2a8.75,8.75,0,0,0-5.61,1.87,6.59,6.59,0,0,0-2.53,5.07V20A7.46,7.46,0,0,0,79,25a6.32,6.32,0,0,0,4.83,2.28H94.65V13.54a6.56,6.56,0,0,0-.35-2.22,6.12,6.12,0,0,0-1.07-1.81m-11.46,8a4.41,4.41,0,0,1,3-1.13l6.4,0v7.53H84.93a4.61,4.61,0,0,1-3.39-1,3.71,3.71,0,0,1-1-2.73,3.37,3.37,0,0,1,1.24-2.68"/><path class="cls-1" d="M102.09,7.53a5.64,5.64,0,0,0-2.15,1.38,7.75,7.75,0,0,0-1.28,1.87,5.69,5.69,0,0,0-.58,2.57V27.24l3.39.08V14.26a5.21,5.21,0,0,1,.29-1.79,3,3,0,0,1,1-1.3,2.26,2.26,0,0,1,.92-.54,4.51,4.51,0,0,1,1.28-.17h3.13V7.06h-3.28a7.75,7.75,0,0,0-2.73.47"/><path class="cls-1" d="M126.66,11.3a6,6,0,0,0-1.07-1.81,2.39,2.39,0,0,0-.26-.3L125.15,9a5.65,5.65,0,0,0-2.45-1.57,9.87,9.87,0,0,0-2.77-.36h-8.85v3.51h9.57a2.45,2.45,0,0,1,.85.14,3.65,3.65,0,0,1,.79.43l.13.11.09.07a3.09,3.09,0,0,1,.74,1,2.54,2.54,0,0,1,.14.43h-5.82a8.74,8.74,0,0,0-5.61,1.87,6.59,6.59,0,0,0-2.53,5.07V20a7.46,7.46,0,0,0,1.91,5,6.32,6.32,0,0,0,4.84,2.28H127V13.52a6.44,6.44,0,0,0-.35-2.22m-12.53,6.17a4.4,4.4,0,0,1,3-1.13l6.4,0v7.53h-6.21a4.61,4.61,0,0,1-3.39-1,3.72,3.72,0,0,1-1-2.73,3.38,3.38,0,0,1,1.24-2.68"/><polygon class="cls-1" points="7.98 34.56 7.98 23.43 0 29.01 7.98 34.56"/><polygon class="cls-1" points="26.03 34.65 33.99 29.01 26.03 23.39 26.03 34.65"/><polygon class="cls-1" points="0.02 27.79 8 22.21 8 0.08 0.02 5.64 0.02 27.79"/><polygon class="cls-1" points="26.05 0 26.05 22.17 34.01 27.79 34.01 5.64 26.05 0"/><polygon class="cls-1" points="17 9.12 11.46 13.01 11.46 19.37 11.58 19.46 17 15.63 17 15.63 22.5 19.49 22.54 19.45 22.54 12.93 17.06 9.08 17 9.12"/><path class="cls-1" d="M17,18.92a5.54,5.54,0,0,0-5.54,5.54,8,8,0,0,0,1.17,3.77c.25.45.51.88.77,1.3a21.84,21.84,0,0,0,2.76,3.54l0,0a1.15,1.15,0,0,0,.79.31h0a1.14,1.14,0,0,0,.83-.37L17.9,33A23.47,23.47,0,0,0,21,28.83a18.22,18.22,0,0,0,1-1.82,6.24,6.24,0,0,0,.61-2.55A5.54,5.54,0,0,0,17,18.92Zm2,8.71a3.49,3.49,0,0,1-.84.4,3.64,3.64,0,0,1-1.15.18h0a3.58,3.58,0,0,1-.92-.12,3.66,3.66,0,0,1-.84-.33,3.72,3.72,0,0,1,1.76-7h0a3.71,3.71,0,0,1,2,6.85Z"/></g></g></svg>